<svg xmlns="http://www.w3.org/2000/svg" width="180" height="180" viewBox="0 0 180 180"><rect width="100%" height="100%" fill="#DDDDDD"/><path fill="#999999" d="M44.265 96.455h3.12v2.22h-9.6v-2.22h3.51v-10.12q0-.6.04-1.23l-2.5 2.09q-.21.16-.42.21-.21.04-.4 0-.18-.03-.33-.12-.14-.09-.21-.2l-.94-1.29 5.29-4.5h2.44v15.16Zm11.58.1q.73 0 1.28-.21t.93-.59q.38-.37.57-.88.19-.52.19-1.12 0-1.43-.79-2.16-.79-.73-2.18-.73-1.39 0-2.19.73-.79.73-.79 2.16 0 .6.19 1.12.2.51.57.88.38.38.93.59.56.21 1.29.21Zm0-13.19q-.66 0-1.14.2-.48.21-.8.55-.32.34-.47.78-.15.45-.15.94 0 .52.13 1 .12.49.42.87.3.37.8.6.49.23 1.21.23t1.21-.23q.49-.23.79-.6.3-.38.43-.87.12-.48.12-1 0-.49-.15-.94-.16-.44-.47-.78-.31-.34-.79-.55-.48-.2-1.14-.2Zm2.93 6.26q1.58.52 2.34 1.58.75 1.06.75 2.6 0 1.15-.44 2.09-.43.93-1.23 1.59-.79.66-1.9 1.02-1.11.36-2.45.36-1.35 0-2.46-.36-1.11-.36-1.9-1.02-.79-.66-1.23-1.59-.44-.94-.44-2.09 0-1.54.76-2.6t2.34-1.58q-1.26-.53-1.89-1.5-.63-.97-.63-2.34 0-.98.4-1.83.4-.86 1.12-1.49.72-.63 1.73-.98 1-.35 2.2-.35 1.2 0 2.2.35 1 .35 1.72.98t1.12 1.49q.41.85.41 1.83 0 1.37-.63 2.34-.63.97-1.89 1.5Zm17.35.37q0 2.27-.49 3.95-.48 1.67-1.34 2.76-.86 1.09-2.03 1.63-1.17.53-2.53.53-1.35 0-2.51-.53-1.16-.54-2.01-1.63-.85-1.09-1.33-2.76-.48-1.68-.48-3.95 0-2.28.48-3.94.48-1.67 1.33-2.76.85-1.1 2.01-1.63 1.16-.53 2.51-.53 1.36 0 2.53.53 1.17.53 2.03 1.63.86 1.09 1.34 2.76.49 1.66.49 3.94Zm-3.06 0q0-1.88-.28-3.12-.27-1.23-.74-1.96-.46-.74-1.06-1.03-.6-.29-1.25-.29-.63 0-1.23.29-.59.29-1.05 1.03-.45.73-.72 1.96-.27 1.24-.27 3.12 0 1.89.27 3.12.27 1.24.72 1.97.46.73 1.05 1.03.6.29 1.23.29.65 0 1.25-.29.6-.3 1.06-1.03.47-.73.74-1.97.28-1.23.28-3.12Zm22.11 4.71-1.57 1.55-4.07-4.07-4.1 4.09-1.57-1.55 4.1-4.11-3.91-3.92 1.56-1.56 3.91 3.92 3.89-3.89 1.58 1.56-3.9 3.9 4.08 4.08Zm16.43 1.75h3.12v2.22h-9.6v-2.22h3.52v-10.12q0-.6.03-1.23l-2.49 2.09q-.22.16-.43.21-.21.04-.39 0-.19-.03-.33-.12-.15-.09-.22-.2l-.94-1.29 5.3-4.5h2.43v15.16Zm11.58.1q.73 0 1.29-.21.55-.21.93-.59.37-.37.57-.88.19-.52.19-1.12 0-1.43-.79-2.16-.8-.73-2.19-.73t-2.18.73q-.79.73-.79 2.16 0 .6.19 1.12.19.51.57.88.38.38.93.59.55.21 1.28.21Zm0-13.19q-.66 0-1.14.2-.48.21-.8.55-.31.34-.46.78-.15.45-.15.94 0 .52.12 1 .13.49.43.87.3.37.79.6.49.23 1.21.23t1.21-.23q.5-.23.8-.6.3-.38.42-.87.13-.48.13-1 0-.49-.16-.94-.15-.44-.47-.78-.31-.34-.79-.55-.48-.2-1.14-.2Zm2.93 6.26q1.58.52 2.34 1.58.76 1.06.76 2.6 0 1.15-.44 2.09-.44.93-1.23 1.59t-1.9 1.02q-1.11.36-2.46.36-1.34 0-2.45-.36t-1.9-1.02q-.8-.66-1.23-1.59-.44-.94-.44-2.09 0-1.54.75-2.6.76-1.06 2.34-1.58-1.26-.53-1.89-1.5-.63-.97-.63-2.34 0-.98.41-1.83.4-.86 1.12-1.49.72-.63 1.72-.98t2.2-.35q1.2 0 2.2.35 1.01.35 1.73.98t1.12 1.49q.4.85.4 1.83 0 1.37-.63 2.34-.63.97-1.89 1.5Zm17.35.37q0 2.27-.48 3.95-.49 1.67-1.35 2.76-.86 1.09-2.03 1.63-1.17.53-2.52.53-1.36 0-2.52-.53-1.15-.54-2.01-1.63-.85-1.09-1.33-2.76-.48-1.68-.48-3.95 0-2.28.48-3.94.48-1.67 1.33-2.76.86-1.1 2.01-1.63 1.16-.53 2.52-.53 1.35 0 2.52.53t2.03 1.63q.86 1.09 1.35 2.76.48 1.66.48 3.94Zm-3.06 0q0-1.88-.27-3.12-.28-1.23-.74-1.96-.46-.74-1.06-1.03-.6-.29-1.25-.29-.64 0-1.23.29-.6.29-1.05 1.03-.46.73-.73 1.96-.27 1.24-.27 3.12 0 1.89.27 3.12.27 1.24.73 1.97.45.73 1.05 1.03.59.29 1.23.29.65 0 1.25-.29.6-.3 1.06-1.03.46-.73.74-1.97.27-1.23.27-3.12Z"/></svg>